<svg height="56" viewBox="0 0 56 56" width="56" xmlns="http://www.w3.org/2000/svg" xmlns:xlink="http://www.w3.org/1999/xlink"><defs><linearGradient id="a" x1="50%" x2="50%" y1="0%" y2="100%"><stop offset="0" stop-color="#ff4e00"/><stop offset="1" stop-color="#fe8800"/></linearGradient><circle id="b" cx="25.455" cy="25.455" r="25.455"/><linearGradient id="c"><stop offset="0" stop-color="#43e695"/><stop offset="1" stop-color="#3bb2b8"/></linearGradient><linearGradient id="d" x1="0%" xlink:href="#c" y1="8.289%" y2="91.711%"/><linearGradient id="e" x1="0%" xlink:href="#c" y1="8.293%" y2="91.707%"/><mask id="f" fill="#fff"><use fill="#fff" fill-rule="evenodd" xlink:href="#b"/></mask></defs><g fill="none" fill-rule="evenodd"><g fill="url(#a)" transform="translate(2.545 5.09)"><use opacity=".12" xlink:href="#b"/><path d="m21.043 36.602-.09-2.917 9.038-.001-.086 2.827z" mask="url(#f)"/><path d="m25.1423671 32.1074091h-3.0225112v1.9447273c.0024974 1.2084545-.1947993.9577272-1.3030326 1.5851818 0 0-1.0682744.8928182-1.3935643.9990909 1.3429914 4.4068182 2.3144906 10.0736364 4.9399108 14.049h.7791973.7798216c2.6254202-3.9753636 3.5969194-9.6421818 4.9399108-14.049-.3252899-.1062727-1.3935643-.9990909-1.3935643-.9990909-1.1082333-.6274546-1.3055301-.3767273-1.303657-1.5851818v-1.9447273z" mask="url(#f)"/><path d="m42.0795455 50.9086452c-.2984032-3.9360866-.9574889-10.618788-3.892683-11.6001357l-.0013441.0008914c-.8271055-.6377423-6.6759871-2.9618696-8.2997305-3.71281-.0412209.0231744-1.2352817 3.1423626-2.6220051 5.2641593-.5757479.8797368-1.5327888 2.0246424-1.5327888 2.0246424s-.9655538-1.2915284-1.4100222-2.0233054c-1.3446065-2.2131574-3.2537596-5.2409849-3.2976688-5.2654963-1.6237434.7509404-7.4721769 3.0750677-8.2997305 3.71281l-.0008961-.0008914c-2.93564206.9813477-3.59517582 7.6640491-3.89313095 11.6001357h5.94610905c0 .0004457.000448.0004457.000448.0004457h10.6779949 10.679339v-.0004457z" mask="url(#f)"/><path d="m22.3230216 38.3119545c.1623328 0 1.0732693.147 1.0732693.147l.6393413 2.3634546-2.2895162-1.078z" mask="url(#f)"/><path d="m20.9535575 33.6852727 2.4424837 4.774-.1600866.1598574c-.5531727.5518306-2.348627 2.3381147-2.3179855 2.2449608.0355884-.1100909-1.1282127-4.5601818-1.0420514-4.7956364.0874099-.2348181 1.0776398-2.3831818 1.0776398-2.3831818zm9.0373145-.0012091s.9908542 2.1483637 1.0776398 2.3838182c.0861613.2354546-1.0776398 4.6849091-1.0414271 4.795.0355884.1100909-2.478072-2.4048182-2.478072-2.4048182z" mask="url(#f)"/><path d="m28.6220322 38.3107455c-.1623327 0-1.0732692.147-1.0732692.147l-.6393414 2.3634545 2.288892-1.078z" mask="url(#f)"/></g><g transform="translate(11.455)"><path d="m24.3200075 23.4816909c-.4320548 2.5053636 1.0251939 4.5913636 3.2572693 5.0412727 2.2308268.4492728 4.3892282-.9087272 4.8206587-3.4140909.4326793-2.5053636-1.0245695-4.9019091-3.2553962-5.3511818-2.2314511-.4492727-4.3904769 1.2173636-4.8225318 3.724m-15.56802397 0c.43205489 2.5053636-1.02519382 4.5913636-3.25726929 5.0412727-2.23082676.4492728-4.38922813-.9087272-4.82065866-3.4140909-.43330361-2.5053636 1.02456946-4.9019091 3.25539622-5.3511818 2.23207547-.4492727 4.39047684 1.2173636 4.82253173 3.724" fill="#f5a998"/><path d="m27.6704933 8.56074545c-2.1783808-3.01636363-5.5761303-4.99736363-9.1824151-5.1430909-.0012487 0-.0711767-.00318182-.187307-.00827273l.0043705-.14318182s-.8740995.035-1.7775438.07190909c-.9028199-.03690909-1.7769193-.07190909-1.7769193-.07190909l.0037461.14318182c-.1161304.00509091-.1866827.00827273-.1866827.00827273-3.6081578.14572727-7.00465864 2.12672727-9.18303943 5.1430909-2.18087821 3.01954545-2.4699554 6.82245455-2.29825729 10.46372725.12986621 2.7522728.6081235 7.1940909.74173585 9.947 3.46705318 13.2185455 22.16716297 13.4349091 25.39883367 0 .1336123-2.7529091.6112452-7.1947272.7417358-9.947.1710738-3.6412727-.1180034-7.4441818-2.2982573-10.46372725" fill="#ffc2b0"/><path d="m14.2315259 19.8356455c.3677461.2927272.479506.9271818.5107238 1.7086363.1317393 3.2212727-1.6320686 7.1622727-5.16967406 7.3557273-2.6678765.1457273-4.47164322-1.1359091-5.20026758-3.8977273-.19916981-.7566363-.28720411-1.7983636-.25536192-2.4818182.0318422-.6828181.27908748-1.3586363.74236021-1.9364545 1.23185591-1.5368182 5.41130015-1.449 7.13702225-1.3344546.6099966.0407273 1.7400824.1909091 2.2351973.586091m4.5915197 0c.4944906-.3951819 1.6252007-.5453637 2.2351973-.586091 1.7257221-.1145454 5.9057907-.2023636 7.1370223 1.3344546.4626484.5778182.710518 1.2536364.7429845 1.9364545.0312179.6834546-.0561921 1.7251819-.2559862 2.4818182-.728 2.7618182-2.5317668 4.0434546-5.2002676 3.8977273-3.5376055-.1934546-5.3020378-4.1344546-5.1702985-7.3557273.0324666-.7814545.1442264-1.4159091.5113482-1.7086363m-3.3359382 1.7697272c-.0942779.0738182-.2266415-.168-.2391287-.2443636-.1311149-.7572727.0430806-1.8448182-.9983465-2.0420909h4.5553071c-1.0414271.1972727-.8666072 1.2848182-.9977221 2.0420909-.0131115.0763636-.1460995.3137273-.239753.2443636-.0942779-.0687272-1.9867033-.0744545-2.0803568 0m-10.76203776-1.6596363c-.56504288.6408181-.81540995 1.1906363-1.01333105 1.9160909 0 0-.51946483.0203636-.69490909.175-.17544425.1546363-.17919039.6955454-.01935506.8132727.15983534.1183636.68242196.1100909.68242196.1100909-.0043705 3.8200909 2.01604803 6.5411818 5.87082676 6.3999091 1.90116634-.07 3.40149574-.8966364 4.48350604-2.7828182.6062504-1.0576363 1.0376809-2.3761818 1.1338319-3.0596363.0955266-.6834546.1748199-1.0251819.3346552-1.1231819.1292418-.0789091.7798216-.0884545 1.0245695-.0890909.2447478.0006364.8953276.0101818 1.0239451.0890909.1598353.098.239753.4397273.3352796 1.1231819.0961509.6834545.5269571 2.002 1.1338319 3.0596363 1.0820103 1.8861818 2.5823396 2.7128182 4.4841303 2.7828182 3.8541544.1412727 5.8745729-2.5798182 5.8708268-6.3999091 0 0 .5225866.0082727.6824219-.1100909.1598354-.1177273.1554649-.6586364-.0206037-.8132727-.1754443-.1546364-.6942848-.175-.6942848-.175-.1972967-.7254546-.4482881-1.2752728-1.0139554-1.9160909-.5257084-.5962728-1.7919039-1.036-3.3440549-1.1607273-3.844789-.3086364-12.7574819-.2882727-16.61163632-.0413636-1.68451458.1075454-3.08557119.5650909-3.64811664 1.2020909" fill="#000"/><path d="m4.77776535 20.5217727c-.47138936.5886364-.72300514 1.2759091-.7554717 1.9714546-.03246655.6955454.05681647 1.7557272.25973242 2.5257272.40271012 1.526 1.12758834 2.6078182 2.14029503 3.2543637.85349571.5447273 1.91053173.7808182 3.15300171.7133636 3.60066549-.1966363 5.39631559-4.2089091 5.26207889-7.4874545-.0324665-.7948182-.1460995-1.4413637-.5200892-1.7385455-.5038559-.4021818-1.6539211-.5555454-2.2751561-.5969091-1.4247821-.0935454-4.49412004-.1705454-6.27166378.6389091-.41269982.1883637-.75609605.4244546-.99272727.7190909" fill="url(#d)"/><path d="m18.2526957 21.5166636c-.132988 3.2569091 1.6514237 7.2424546 5.2277393 7.4371819 1.2368508.0674545 2.290765-.1686364 3.1392659-.7133637 1.0027169-.6420909 1.7201029-1.7156363 2.1190669-3.2276363.2016672-.7649091.2903259-1.818091.2584837-2.5091819-.033091-.6910909-.2828337-1.3739091-.7511012-1.9580909-.2335095-.2914545-.5712865-.525-.9789915-.7120909-1.7638079-.8075454-4.8194099-.7311818-6.2373242-.637-.6168644.0400909-1.7594373.1928182-2.2601715.5918182-.3714923.2965455-.4845008.938-.5169674 1.7283636" fill="url(#e)"/><path d="m21.8330072 32.7083273c-.9596364 1.2517272-2.7221955 2.0904545-4.7382436 2.0904545-2.016048 0-3.7792315-.8387273-4.7388679-2.0904545 1.1694203.8616363 2.805235 1.7334545 4.6845489 1.7334545s3.6231424-.8718182 4.7925626-1.7334545m-7.131965-1.4535182c-.0124871-.0038182-.0137359-.014-.0037461-.0324546 0-.0534545.0299691-.1056363.0855368-.1546363.4289331-.8419091 1.2736879-3.2982727 1.6601647-6.0002727.4239382.0267272-.4201921 4.5983636-.7841921 5.6897272.3677461-.0655454.8160343-.1030909 1.2992864-.1030909 1.2487136 0 2.2607959.2545455 2.2607959.5682727 0 .3143637-1.0120823.5695455-2.2607959.5695455-1.2050085 0-2.1902435-.2373636-2.2570497-.5370909" fill="#f5a998"/><path d="m13.576763.00012727-.496988 1.01372728s1.8736946-.93609091 4.971753-.78018182c3.0980583.15590909 4.2830874.78018182 6.3865454 1.09136363 2.1040823.31181819 5.7746758-.38945454 5.7746758-.38945454s-.8029228 2.65109091-.4195677 2.57281818c.3821063-.07763636 1.7201029-1.01309091 1.7201029-1.01309091s-.1910532 3.11818182-.4201921 3.39118182c-.2297633.273 1.3005351-.50654546 1.5296741-.70127273.2291389-.19472727-.344645 1.79263637-2.1421681 3.89836364-.2117638.24792297-.4415776.48773816-.6822494.71791499 1.1284536 3.14182479.7637736 6.40510199.7664751 8.48084869 0 .7203636-.1123842 7.2965454-.8391355 7.4404078-.1036457.0208034-1.0483117-7.3332592-2.550314-12.2067391-.4354627.3982362-1.9520576 1.3105503-3.8848688 1.4921131-2.4861887.2335454-5.8895575-.8966364-5.8895575-.8966364s1.0320617.9360909 1.3767067 1.0137273c.3446449.0776363-4.206916.0388182-8.94953003-1.5985455-1.72365973-.5949319-2.86879927-1.1576615-3.63287054-1.6465944-.50006804.8625471-.74182706 1.7276899-.72737869 1.7739781l.00353308-.0019291-.06066079.1028637c-1.73878722 3.0438744-1.8249356 13.6927864-2.39168086 11.6702168l-.02458954-.0944987c-.11051115-.4524546-.16857633-.9246364-.23163636-1.3866364-.09552659-.6936363-.17669297-1.3942727-.21727616-2.0942727-.37898456-6.4508182-.40770498-8.9962727.74173585-12.25318182.22330753-.63221244.52703116-1.24534364.8952034-1.82827071l-.12780649-.71285656s-1.6451801.15590909-1.93175986.33154545c-.28720412.175.26784905-.52690909.93715952-1.13081818.66931046-.60390909 1.56838422-.85718182 1.56838422-.85718182l-1.98920069-.66309091s.3827307-.21445454 1.2624494-.25327272c.87909434-.03881818 1.96922127.31118182 1.96922127.31118182s1.07077187-1.77354546 2.21771527-2.65045455c1.14756775-.87690909 5.4880961-2.14327273 5.4880961-2.14327273zm-8.09435428 13.63400003-.00853076.0184329-.00246924-.0004329zm21.20992548-1.5382381-.1429496.0854455c-.5784505.3375979-.9643678.5269744-.9643678.5269744s1.0556964.4782214 1.5240251.5971199c-.134189-.4260887-.2733662-.8316101-.4167077-1.2095398z" fill="#000"/></g></g></svg>