<svg xmlns="http://www.w3.org/2000/svg" xmlns:xlink="http://www.w3.org/1999/xlink" width="10" height="10" viewBox="0 0 10 10">
  <defs>
    <rect id="code-1-b" width="10" height="10" x="0" y="0" rx="2"/>
    <filter id="code-1-a" width="160%" height="160%" x="-30%" y="-30%" filterUnits="objectBoundingBox">
      <feMorphology in="SourceAlpha" operator="dilate" radius=".25" result="shadowSpreadOuter1"/>
      <feOffset dy="2" in="shadowSpreadOuter1" result="shadowOffsetOuter1"/>
      <feGaussianBlur in="shadowOffsetOuter1" result="shadowBlurOuter1" stdDeviation="2"/>
      <feComposite in="shadowBlurOuter1" in2="SourceAlpha" operator="out" result="shadowBlurOuter1"/>
      <feColorMatrix in="shadowBlurOuter1" values="0 0 0 0 0.219607843   0 0 0 0 0.282352941   0 0 0 0 0.301960784  0 0 0 0.08 0"/>
    </filter>
  </defs>
  <g fill="none" fill-rule="evenodd">
    <g opacity="0">
      <use fill="#000" filter="url(#code-1-a)" xlink:href="#code-1-b"/>
      <use fill="#FFF" stroke="#38484D" stroke-opacity=".04" stroke-width=".5" xlink:href="#code-1-b"/>
    </g>
    <g fill-rule="nonzero" transform="translate(1.5 1)">
      <path fill="#E55126" d="M0,2.70894418e-14 C2.34519878,0.00122324159 4.69039755,-0.000489296636 7.03559633,0.000733944954 C6.93431193,1.14740061 6.82519878,2.29333333 6.73149847,3.44 C6.7133945,3.52171254 6.71608563,3.60611621 6.70948012,3.68929664 C6.67718654,3.97259939 6.65834862,4.25834862 6.63412844,4.54287462 C6.61211009,4.63828746 6.62507645,4.73737003 6.60256881,4.83278287 C6.54042813,5.61737003 6.4658104,6.40122324 6.39559633,7.1853211 C5.93394495,7.31327217 5.47400612,7.4466055 5.01088685,7.56941896 C4.97272171,7.58042813 4.93406728,7.59094801 4.89590214,7.60244648 C4.84477064,7.61541284 4.79412844,7.62960245 4.74324159,7.64256881 C4.36012232,7.74996942 3.97626911,7.85370031 3.59388379,7.9635474 C3.55571865,7.97186544 3.51633028,7.99070336 3.47743119,7.97577982 C3.11657492,7.87522936 2.75669725,7.77223242 2.39486239,7.67535168 C2.29969419,7.64599388 2.20256881,7.62397554 2.10715596,7.59510703 C1.61614679,7.46348624 1.12782875,7.32281346 0.638042813,7.18752294 C0.58617737,6.63877676 0.536269113,6.08978593 0.492232416,5.54030581 C0.463853211,5.26434251 0.437675841,4.98788991 0.419571865,4.71070336 C0.391926606,4.52501529 0.388990826,4.33639144 0.364281346,4.15045872 C0.354984709,4.05944954 0.354740061,3.96770642 0.346422018,3.87669725 C0.321957187,3.78103976 0.339327217,3.68073394 0.31412844,3.5853211 C0.306299694,3.49626911 0.309724771,3.40574924 0.290642202,3.31792049 C0.202813456,2.2116208 0.0914984709,1.10654434 0,2.70894418e-14 M3.52342508,0.583975535 C3.5048318,0.877798165 3.52366972,1.17259939 3.51412844,1.46691131 C2.77749235,1.46764526 2.04085627,1.46593272 1.30422018,1.46764526 C1.38397554,2.35767584 1.46544343,3.24770642 1.54568807,4.137737 C2.20061162,4.13602446 2.85553517,4.14238532 3.51021407,4.13455657 L3.50996942,4.14042813 C3.52685015,4.60428135 3.50727829,5.0688685 3.51877676,5.53272171 C3.18825688,5.462263 2.86409786,5.35926606 2.53553517,5.27755352 C2.51767584,5.04391437 2.48587156,4.81149847 2.47853211,4.57712538 C2.18079511,4.57027523 1.88281346,4.57761468 1.5848318,4.57321101 C1.62348624,5.03633028 1.66899083,5.49896024 1.70544343,5.96207951 C2.29749235,6.12746177 2.89076453,6.28868502 3.4835474,6.4516208 C3.53565749,6.55730887 3.5124159,6.67792049 3.51633028,6.79119266 C3.52,6.98495413 3.50948012,7.17896024 3.52097859,7.37247706 C4.29333333,7.1564526 5.06691131,6.94458716 5.8395107,6.72978593 C5.86299694,6.59082569 5.87033639,6.45015291 5.8835474,6.31021407 C6.03938838,4.537737 6.19816514,2.76574924 6.35767584,0.99351682 C6.36672783,0.857737003 6.38996942,0.722201835 6.38336391,0.585688073 C5.42996942,0.582752294 4.47657492,0.584220183 3.52342508,0.583975535 Z"/>
      <path fill="#E55126" d="M2.27914373,2.35547401 C2.68721713,2.35498471 3.09529052,2.35547401 3.50336391,2.35522936 L3.51975535,2.35522936 C3.5133945,2.65541284 3.51461774,2.95584098 3.51779817,3.25602446 C3.13149847,3.25235474 2.74470948,3.26556575 2.35889908,3.24941896 C2.32587156,2.9524159 2.30238532,2.65370031 2.27914373,2.35547401 Z"/>
      <path fill="#F1672C" d="M3.52342508,0.583975535 C4.47657492,0.584220183 5.42996942,0.582752294 6.38336391,0.585688073 C6.38996942,0.722201835 6.36672783,0.857737003 6.35767584,0.99351682 C6.19816514,2.76574924 6.03938838,4.537737 5.8835474,6.31021407 C5.87033639,6.45015291 5.86299694,6.59082569 5.8395107,6.72978593 C5.06691131,6.94458716 4.29333333,7.1564526 3.52097859,7.37247706 C3.50948012,7.17896024 3.52,6.98495413 3.51633028,6.79119266 C3.5124159,6.67792049 3.53565749,6.55730887 3.4835474,6.4516208 C3.49186544,6.45308869 3.50850153,6.45626911 3.51681957,6.457737 C4.11743119,6.29431193 4.71804281,6.12990826 5.31767584,5.96330275 C5.40477064,5.06152905 5.47669725,4.15804281 5.56232416,3.25602446 C4.88073394,3.25553517 4.19914373,3.25529052 3.51779817,3.25602446 C3.51461774,2.95584098 3.5133945,2.65541284 3.51975535,2.35522936 C4.22752294,2.35547401 4.93529052,2.35474006 5.6430581,2.35571865 C5.66948012,2.05944954 5.69859327,1.76342508 5.72281346,1.46715596 C4.98666667,1.46691131 4.25027523,1.46715596 3.51412844,1.46691131 C3.52366972,1.17259939 3.5048318,0.877798165 3.52342508,0.583975535 Z"/>
      <path fill="#F1672C" d="M3.50996942,4.14042813 C3.87033639,4.13455657 4.23094801,4.13944954 4.59131498,4.13798165 C4.56024465,4.51816514 4.53211009,4.89908257 4.48831804,5.27804281 C4.19009174,5.35828746 3.89088685,5.43510703 3.59363914,5.51877676 C3.57504587,5.52244648 3.53737003,5.52929664 3.51877676,5.53272171 C3.50727829,5.0688685 3.52685015,4.60428135 3.50996942,4.14042813 Z"/>
    </g>
  </g>
</svg>
