<svg xmlns="http://www.w3.org/2000/svg" xmlns:xlink="http://www.w3.org/1999/xlink" width="10" height="10" viewBox="0 0 10 10">
  <defs>
    <rect id="code-4-b" width="10" height="10" x="0" y="0" rx="2"/>
    <filter id="code-4-a" width="160%" height="160%" x="-30%" y="-30%" filterUnits="objectBoundingBox">
      <feMorphology in="SourceAlpha" operator="dilate" radius=".25" result="shadowSpreadOuter1"/>
      <feOffset dy="2" in="shadowSpreadOuter1" result="shadowOffsetOuter1"/>
      <feGaussianBlur in="shadowOffsetOuter1" result="shadowBlurOuter1" stdDeviation="2"/>
      <feComposite in="shadowBlurOuter1" in2="SourceAlpha" operator="out" result="shadowBlurOuter1"/>
      <feColorMatrix in="shadowBlurOuter1" values="0 0 0 0 0.219607843   0 0 0 0 0.282352941   0 0 0 0 0.301960784  0 0 0 0.08 0"/>
    </filter>
  </defs>
  <g fill="none" fill-rule="evenodd">
    <g opacity="0">
      <use fill="#000" filter="url(#code-4-a)" xlink:href="#code-4-b"/>
      <use fill="#FFF" stroke="#38484D" stroke-opacity=".04" stroke-width=".5" xlink:href="#code-4-b"/>
    </g>
    <path fill="#CF649A" fill-rule="nonzero" d="M8.24763144,5.51959672 C7.93295553,5.52143907 7.6604708,5.59985754 7.43193522,5.71661879 C7.34755286,5.54332838 7.26317049,5.39190905 7.24912434,5.2788325 C7.23330265,5.14749661 7.21396502,5.06721755 7.23330265,4.91036237 C7.25262269,4.7534707 7.34052099,4.53092934 7.34052099,4.51268824 C7.33874545,4.49627126 7.32116579,4.41601043 7.14011287,4.41418633 C6.95905995,4.41236222 6.8025834,4.45066852 6.78500374,4.49991947 C6.76742408,4.54917043 6.73226476,4.66226523 6.70941121,4.77900824 C6.67776782,4.95047454 6.34727022,5.55790302 6.15916786,5.87712219 C6.09763905,5.75308274 6.04490007,5.64363617 6.03433469,5.55606067 C6.01853058,5.42474302 5.99917537,5.34446396 6.01853058,5.18760878 C6.0378682,5.03071712 6.1257665,4.80819399 6.1257665,4.78995289 C6.12400854,4.77353591 6.10642888,4.69327509 5.92537596,4.69145098 C5.74428789,4.68962687 5.58784649,4.72793317 5.57026683,4.77718413 C5.55268717,4.82643509 5.53334955,4.9431781 5.4946743,5.05627289 C5.45773943,5.16936768 5.01824794,6.1835726 4.90398015,6.44806848 C4.84596727,6.58305259 4.79500384,6.69067506 4.75806897,6.76363944 C4.72115169,6.83660382 4.75631101,6.76911177 4.75279508,6.77640821 C4.72115169,6.83842793 4.70357203,6.87308601 4.70357203,6.87308601 L4.70357203,6.87492836 C4.6789605,6.9205311 4.65259101,6.96429149 4.64026767,6.96429149 C4.63147784,6.96429149 4.61389818,6.84207615 4.64378361,6.67427631 C4.70882835,6.32220493 4.86704528,5.77316619 4.8653049,5.75310098 C4.8653049,5.74398044 4.89517274,5.64728439 4.76332529,5.59805167 C4.63499378,5.54880071 4.58930424,5.63088564 4.57873886,5.63088564 C4.56819107,5.63088564 4.55940124,5.6600714 4.55940124,5.6600714 C4.55940124,5.6600714 4.70179648,5.0417165 4.28691651,5.0417165 C4.02673755,5.0417165 3.66811249,5.33539814 3.49055793,5.60354224 C3.3780481,5.66738608 3.13896473,5.80235194 2.88581763,5.94647484 C2.7891295,6.00119812 2.68892544,6.05956963 2.59399528,6.11246881 L2.57467523,6.09054301 C2.07189696,5.5341896 1.14193296,5.14018193 1.18060821,4.39229701 C1.19467194,4.12050469 1.28608617,3.40362963 2.96671922,2.53535348 C4.34320658,1.82395075 5.44545125,2.01913047 5.63705196,2.45326855 C5.90953669,3.0734658 5.04813336,4.22630304 3.61716663,4.39229701 C3.07219718,4.45614084 2.78563115,4.2372477 2.71357212,4.15516277 C2.63797959,4.06942962 2.62743179,4.0657814 2.59930433,4.08219839 C2.55359722,4.10773592 2.58172468,4.18434852 2.59930433,4.22995126 C2.64149552,4.34487016 2.81729212,4.54917043 3.11614633,4.65132057 C3.37806568,4.74070194 4.01798288,4.78995289 4.79148791,4.47985427 C5.65816513,4.13144934 6.33498203,3.16467128 6.13633188,2.35659074 C5.93416579,1.53391733 4.61920724,1.26394911 3.3763253,1.72180061 C2.63620404,1.99541705 1.83457156,2.42225868 1.25795872,2.98226032 C0.572351985,3.6462362 0.463358095,4.22630304 0.50906521,4.4670855 C0.669057693,5.32624111 1.80996003,5.88624274 2.26703119,6.30031561 C2.24417763,6.31306614 2.22308204,6.3258349 2.20374441,6.3367978 C1.97520883,6.45352257 1.10501568,6.92598519 0.887027895,7.42577297 C0.640912658,7.99124693 0.925703146,8.39804161 1.11556347,8.45276489 C1.70272411,8.62240708 2.30394847,8.31778078 2.62917218,7.81615066 C2.95262034,7.31452053 2.91396266,6.66331341 2.76453556,6.36598355 L2.75924408,6.3550389 L2.93855661,6.24559232 C3.05459994,6.17445205 3.16886773,6.10878411 3.26905421,6.05221847 C3.21281688,6.210916 3.17236608,6.39879929 3.15128807,6.67241572 C3.12667655,6.99347724 3.2532501,7.40935598 3.42025687,7.57352584 C3.49409144,7.64464787 3.58198974,7.64649023 3.63648668,7.64649023 C3.82986294,7.64649023 3.91776124,7.48047801 4.01444937,7.28166831 C4.13399105,7.03906174 4.23946901,6.75814887 4.23946901,6.75814887 C4.23946901,6.75814887 4.10762156,7.51880256 4.46800459,7.51880256 C4.59985204,7.51880256 4.73169948,7.34186393 4.79147033,7.25065845 L4.79147033,7.25248256 C4.79147033,7.25248256 4.79498626,7.24701023 4.80201812,7.23424146 C4.80939431,7.22292452 4.81642957,7.21137233 4.82311371,7.19960162 L4.82311371,7.1959534 C4.87585269,7.10109971 4.99363641,6.88403067 5.16943301,6.52468109 C5.39619304,6.06135726 5.6141984,5.48129042 5.6141984,5.48129042 C5.6141984,5.48129042 5.635294,5.62357096 5.70033874,5.85705699 C5.73899641,5.99570756 5.82337878,6.14709041 5.88842352,6.29484328 C5.83568454,6.37145588 5.80404115,6.41525275 5.80404115,6.41525275 L5.80579912,6.41707686 C5.76362551,6.47544837 5.71614285,6.53748634 5.66693738,6.59948782 C5.48762485,6.82202919 5.273153,7.07559866 5.24502555,7.14856304 C5.2116242,7.23427795 5.21865606,7.29812178 5.2837008,7.34921509 C5.33116588,7.38569728 5.41554825,7.39297548 5.50520451,7.38569728 C5.66693738,7.37473438 5.77944721,7.3327981 5.83570212,7.30724233 C5.92360042,7.27440836 6.02380448,7.2251574 6.1204926,7.15219302 C6.2962892,7.01722715 6.40352513,6.82569565 6.39297733,6.57032031 C6.38770343,6.42986387 6.34375428,6.29123154 6.28925734,6.15989566 C6.30507903,6.13618223 6.32091831,6.11245057 6.33672242,6.08693127 C6.61448104,5.66554372 6.82895289,5.20223814 6.82895289,5.20223814 C6.82895289,5.20223814 6.85004848,5.34451868 6.91509323,5.57800471 C6.948477,5.69657183 7.01529729,5.82610185 7.07506813,5.95378952 C6.81488917,6.17450677 6.65139833,6.42988211 6.59514342,6.59770019 C6.49142343,6.90779882 6.57228986,7.04825525 6.7252329,7.08108923 C6.79377599,7.0956821 6.89223967,7.06284813 6.96605666,7.03001416 C7.05747089,6.9990043 7.16822275,6.94608688 7.27020235,6.86766841 C7.44599895,6.7326843 7.61476368,6.54480101 7.60597385,6.29124979 C7.60069996,6.17450677 7.57081453,6.05958787 7.53038132,5.9501413 C7.75188503,5.8552876 8.0384159,5.80056431 8.40233244,5.84616705 C9.1846273,5.94102075 9.33932831,6.44812321 9.30946046,6.65971992 C9.27957504,6.87133487 9.11608421,6.98805964 9.06156968,7.02454183 C9.00707274,7.05919991 8.98949308,7.07198692 8.99476698,7.09750621 C9.00179884,7.13583075 9.02641036,7.1339884 9.07387544,7.12671021 C9.13892019,7.11574731 9.48523948,6.9534198 9.49930321,6.56307859 C9.5203988,6.0613755 9.06156968,5.51414263 8.24763144,5.51959672 L8.24763144,5.51959672 Z M2.21429221,7.63009148 C1.95587121,7.92377312 1.59197225,8.0350438 1.43727125,7.94019011 C1.27026448,7.83986408 1.33529164,7.40755011 1.65350106,7.09562738 C1.84687732,6.90591998 2.09826645,6.73080547 2.26351525,6.623183 C2.30043254,6.59946958 2.35668745,6.56482974 2.42349016,6.52285698 C2.43403795,6.51557878 2.44106982,6.51191232 2.44106982,6.51191232 C2.45337558,6.50461588 2.46743931,6.49549533 2.48150303,6.48637479 C2.59928676,6.93145752 2.48677693,7.32181696 2.21429221,7.63009148 L2.21429221,7.63009148 Z M4.10410563,6.29666739 C4.01444937,6.52468109 3.82458904,7.11022026 3.71032125,7.07738628 C3.61185758,7.05002464 3.55210431,6.60676602 3.69096605,6.16897972 C3.76128469,5.94824422 3.91071179,5.68559069 3.99861009,5.58342231 C4.14102292,5.41925245 4.29570634,5.36452916 4.33439917,5.43202122 C4.38010629,5.51959672 4.16036054,6.15438685 4.10410563,6.29666739 Z M5.66342145,7.07008985 C5.6247462,7.09017329 5.58958688,7.10474793 5.57376519,7.09382151 C5.56145942,7.08652507 5.5895693,7.05916343 5.5895693,7.05916343 C5.5895693,7.05916343 5.78470352,6.84209439 5.86205403,6.74176837 C5.90600318,6.6834151 5.95874216,6.61592305 6.01499707,6.5392922 L6.01499707,6.56118152 C6.01501465,6.82383505 5.77241534,6.99894957 5.66342145,7.07008985 Z M6.8658526,6.78552875 C6.83772514,6.76363944 6.84125865,6.69614739 6.93617124,6.48455068 C6.9731061,6.40064164 7.05747089,6.2601852 7.20338207,6.1270252 C7.22096173,6.18174849 7.2315271,6.23462943 7.22975156,6.28389862 C7.22801117,6.61223835 7.00299152,6.73445369 6.8658526,6.78552875 Z"/>
  </g>
</svg>
