<svg xmlns="http://www.w3.org/2000/svg" xmlns:xlink="http://www.w3.org/1999/xlink" width="10" height="10" viewBox="0 0 10 10">
  <defs>
    <rect id="design-7-b" width="10" height="10" x="0" y="0" rx="2"/>
    <filter id="design-7-a" width="160%" height="160%" x="-30%" y="-30%" filterUnits="objectBoundingBox">
      <feMorphology in="SourceAlpha" operator="dilate" radius=".25" result="shadowSpreadOuter1"/>
      <feOffset dy="2" in="shadowSpreadOuter1" result="shadowOffsetOuter1"/>
      <feGaussianBlur in="shadowOffsetOuter1" result="shadowBlurOuter1" stdDeviation="2"/>
      <feComposite in="shadowBlurOuter1" in2="SourceAlpha" operator="out" result="shadowBlurOuter1"/>
      <feColorMatrix in="shadowBlurOuter1" values="0 0 0 0 0.219607843   0 0 0 0 0.282352941   0 0 0 0 0.301960784  0 0 0 0.08 0"/>
    </filter>
  </defs>
  <g fill="none" fill-rule="evenodd">
    <g opacity="0">
      <use fill="#000" filter="url(#design-7-a)" xlink:href="#design-7-b"/>
      <use fill="#FFF" stroke="#38484D" stroke-opacity=".04" stroke-width=".5" xlink:href="#design-7-b"/>
    </g>
    <g transform="translate(1.5 2.25)">
      <path fill="#FDBD39" d="M1.07893644,3.75426263 L0.712796012,3.88436364 L0.693311176,4.94355556 L1.96069796,4.49329293 C1.52563357,4.35159596 1.20835064,4.10185859 1.07893644,3.75426263"/>
      <path fill="#F69833" d="M1.27058579,2.6339798 L0,3.08537374 L0.712796012,3.88464646 L1.07893644,3.75454545 C0.949813045,3.40808081 1.0294973,3.01692929 1.27058579,2.6339798"/>
      <path fill="#FECF33" d="M3.40839219,1.10529293 C1.79056917,1.68 0.747403407,2.86618182 1.07893644,3.75426263 L6.93747403,1.67292929 C6.60594101,0.784848485 5.02621521,0.530585859 3.40839219,1.10529293"/>
      <path fill="#EE6723" d="M4.60772746,4.32218182 C6.22555048,3.74747475 7.27046115,2.56666667 6.93718322,1.67321212 L1.07864562,3.75426263 C1.41192356,4.648 2.98990445,4.89688889 4.60772746,4.32218182"/>
      <path fill="#F69833" d="M6.93718322,1.67292929 L1.07893644,3.75426263 C1.1935189,4.0619798 1.63120066,4.21357576 2.24482759,4.21357576 C2.84333195,4.21357576 3.60934774,4.06961616 4.40793519,3.78593939 C6.02575821,3.21123232 7.16373079,2.28044444 6.93718322,1.67292929"/>
      <path fill="#FDBD39" d="M5.77129206,1.21389899 C5.17307852,1.21389899 4.40677192,1.35785859 3.60818446,1.64153535 C1.99036145,2.21624242 0.852388866,3.14674747 1.07893644,3.75426263 L6.93747403,1.67292929 C6.82260075,1.36521212 6.3852098,1.21389899 5.77129206,1.21389899"/>
      <g fill="#EE6723" transform="translate(2.265)">
        <path fill-rule="nonzero" d="M3.18213544,4.99983838 C3.0096801,4.99983838 2.75550478,4.84852525 2.4262983,4.54985859 C2.0368924,4.19660606 1.59106772,3.6790303 1.17025343,3.09272727 C0.749729954,2.50642424 0.40423764,1.92040404 0.197174907,1.44214141 C-0.0282093893,0.921171717 -0.0604902368,0.601010101 0.101495638,0.490141414 C0.139011217,0.465252525 0.18350644,0.452525253 0.228874117,0.453656566 C0.360614873,0.453656566 0.61769838,0.548969697 1.0926049,1.00375758 L1.10307437,1.01365657 L1.10162027,1.02779798 C1.09842127,1.06060606 1.09551309,1.09341414 1.09289572,1.12593939 L1.08766099,1.19014141 L1.04113004,1.14460606 C0.529289572,0.643151515 0.304196095,0.589131313 0.230909846,0.589131313 C0.209970918,0.589131313 0.193394267,0.593090909 0.18147071,0.601292929 C0.111092646,0.649373737 0.106439551,0.884686869 0.325135023,1.38953535 C0.528417117,1.8590303 0.868965517,2.43628283 1.28396344,3.01494949 C1.69925218,3.59389899 2.13838803,4.10355556 2.52110511,4.45058586 C2.93348567,4.82476768 3.11931865,4.86521212 3.18009971,4.86521212 C3.20103864,4.86521212 3.21790611,4.8609697 3.23070212,4.85220202 C3.30486082,4.80157576 3.30486082,4.54957576 3.06115496,4.0059798 L3.04981305,3.98109091 L3.07424179,3.96808081 C3.09867054,3.95507071 3.12251766,3.94234343 3.14461986,3.92989899 L3.17399252,3.91377778 L3.18766099,3.94375758 C3.36040715,4.3289697 3.5221022,4.81854545 3.31009555,4.96335354 C3.27257998,4.98824242 3.22779393,5.0009697 3.18213544,4.99983838 Z M3.23068135,4.94044444 L3.23068135,5.04044444 L3.23068135,4.94044444 Z"/>
        <path d="M2.38151226,4.30577778 L2.37918571,4.33519192 C2.33818031,4.82731313 2.23057748,5.4189899 1.94964686,5.4430303 C1.94383049,5.44359596 1.93801413,5.44359596 1.93248857,5.44359596 C1.74171167,5.44359596 1.56111342,5.17773737 1.39621936,4.65365657 C1.23975904,4.15757576 1.11848774,3.49179798 1.0547985,2.77878788 C0.990818446,2.06577778 0.991690902,1.38953535 1.05741587,0.874505051 C1.12895721,0.313373737 1.26506024,0.0203636364 1.46223515,0.00339393939 C1.46805152,0.00282828283 1.4741587,0.00254545455 1.47997507,0.00254545455 C1.61840465,0.00254545455 1.82692148,0.154989899 2.04038222,0.864888889 L1.90108018,0.890909091 C1.82982966,0.65389899 1.75218114,0.461010101 1.67511425,0.328080808 C1.60386373,0.205616162 1.53435812,0.138020202 1.47997507,0.138020202 C1.47823016,0.138020202 1.47648525,0.138020202 1.47444952,0.13830303 C1.3889489,0.145656566 1.2644786,0.347030303 1.19526381,0.891191919 C1.13070212,1.39688889 1.12982966,2.06323232 1.19293727,2.76690909 C1.25604487,3.47086869 1.37528043,4.12674747 1.52883257,4.61377778 C1.59746572,4.83183838 1.6727877,5.01171717 1.74694641,5.13361616 C1.81499792,5.24618182 1.88101371,5.30812121 1.93248857,5.30812121 C1.93423349,5.30812121 1.9359784,5.30812121 1.93772331,5.30783838 C2.01944329,5.30105051 2.17357707,5.09119192 2.23842958,4.35329293 L2.38151226,4.30577778 Z"/>
      </g>
    </g>
  </g>
</svg>
