<svg xmlns="http://www.w3.org/2000/svg" xmlns:xlink="http://www.w3.org/1999/xlink" width="10" height="10" viewBox="0 0 10 10">
  <defs>
    <rect id="design-5-b" width="10" height="10" x="0" y="0" rx="2"/>
    <filter id="design-5-a" width="160%" height="160%" x="-30%" y="-30%" filterUnits="objectBoundingBox">
      <feMorphology in="SourceAlpha" operator="dilate" radius=".25" result="shadowSpreadOuter1"/>
      <feOffset dy="2" in="shadowSpreadOuter1" result="shadowOffsetOuter1"/>
      <feGaussianBlur in="shadowOffsetOuter1" result="shadowBlurOuter1" stdDeviation="2"/>
      <feComposite in="shadowBlurOuter1" in2="SourceAlpha" operator="out" result="shadowBlurOuter1"/>
      <feColorMatrix in="shadowBlurOuter1" values="0 0 0 0 0.219607843   0 0 0 0 0.282352941   0 0 0 0 0.301960784  0 0 0 0.08 0"/>
    </filter>
  </defs>
  <g fill="none" fill-rule="evenodd">
    <g opacity="0">
      <use fill="#000" filter="url(#design-5-a)" xlink:href="#design-5-b"/>
      <use fill="#FFF" stroke="#38484D" stroke-opacity=".04" stroke-width=".5" xlink:href="#design-5-b"/>
    </g>
    <path fill="#DC395F" d="M3.34135188,3.54469365 C3.63505841,3.54469365 3.88110235,3.31858122 3.88110235,3.02222817 C3.88110235,2.72607853 3.63505841,2.5 3.34135188,2.5 C3.04764534,2.5 2.80167043,2.72607853 2.80167043,3.02222817 C2.80167043,3.31854732 3.04764534,3.54469365 3.34135188,3.54469365 M2.22222989,6.34211454 C2.19051235,6.4746632 2.17460181,6.61778864 2.17460181,6.73453994 C2.17460181,7.19459568 2.42858375,7.5 2.96833422,7.5 C3.41596921,7.5 3.77887453,7.23890286 4.04017326,6.81728963 L3.88061917,7.44623474 L4.76950422,7.44623474 L5.27753714,5.44481772 C5.40454538,4.93808181 5.65058931,4.67505238 6.02367599,4.67505238 C6.31734801,4.67505238 6.49988783,4.85445072 6.49988783,5.15060037 C6.49988783,5.23640105 6.49194982,5.32986311 6.46019776,5.43125775 L6.19824328,6.35119972 C6.15855321,6.48374838 6.14274621,6.61636484 6.14274621,6.74101483 C6.14274621,7.17774742 6.40459715,7.49718631 6.95228563,7.49718631 C7.42059397,7.49718631 7.79361162,7.20107056 8,6.49157926 L7.65079639,6.3591662 C7.47616007,6.83447689 7.3253378,6.92041317 7.20626758,6.92041317 C7.08719736,6.92041317 7.02369325,6.84251117 7.02369325,6.68667327 C7.02369325,6.61650044 7.0396383,6.53863234 7.06338332,6.44486518 L7.3174343,5.54861926 C7.3809039,5.33816859 7.40475245,5.15154957 7.40475245,4.9800838 C7.40475245,4.3096113 6.9919757,3.95969639 6.49194982,3.95969639 C6.02367599,3.95969639 5.54739512,4.37459744 5.30932372,4.81126223 L5.48389101,4.02749622 L4.12669761,4.02749622 L3.93618527,4.71783407 L4.57119191,4.71783407 L4.18015842,6.25553416 C3.87309531,6.92600666 3.30904761,6.93688853 3.23826123,6.92132847 C3.12202109,6.89556454 3.04767986,6.85220655 3.04767986,6.70386052 C3.04767986,6.61826324 3.06355589,6.49530825 3.10324596,6.34706393 L3.69859704,4.02749622 L2.19051235,4.02749622 L2,4.71783407 L2.6269996,4.71783407 L2.2222644,6.34211454"/>
  </g>
</svg>
