<svg xmlns="http://www.w3.org/2000/svg" xmlns:xlink="http://www.w3.org/1999/xlink" width="10" height="10" viewBox="0 0 10 10">
  <defs>
    <rect id="code-5-b" width="10" height="10" x="0" y="0" rx="2"/>
    <filter id="code-5-a" width="160%" height="160%" x="-30%" y="-30%" filterUnits="objectBoundingBox">
      <feMorphology in="SourceAlpha" operator="dilate" radius=".25" result="shadowSpreadOuter1"/>
      <feOffset dy="2" in="shadowSpreadOuter1" result="shadowOffsetOuter1"/>
      <feGaussianBlur in="shadowOffsetOuter1" result="shadowBlurOuter1" stdDeviation="2"/>
      <feComposite in="shadowBlurOuter1" in2="SourceAlpha" operator="out" result="shadowBlurOuter1"/>
      <feColorMatrix in="shadowBlurOuter1" values="0 0 0 0 0.219607843   0 0 0 0 0.282352941   0 0 0 0 0.301960784  0 0 0 0.08 0"/>
    </filter>
  </defs>
  <g fill="none" fill-rule="evenodd">
    <g opacity="0">
      <use fill="#000" filter="url(#code-5-a)" xlink:href="#code-5-b"/>
      <use fill="#FFF" stroke="#38484D" stroke-opacity=".04" stroke-width=".5" xlink:href="#code-5-b"/>
    </g>
    <path fill="#563F7A" fill-rule="nonzero" d="M4.93287232,4.32283994 C5.17968201,4.32283994 5.36682586,4.26926037 5.49430463,4.16208999 C5.62177581,4.05492711 5.68551671,3.89685625 5.68551671,3.68787668 C5.68551671,3.48158519 5.62177581,3.32485388 5.49430463,3.21768275 C5.36682586,3.10784153 5.17968201,3.05291342 4.93287232,3.05291342 L4.06631449,3.05291342 L4.06631449,4.32283994 L4.93287232,4.32283994 M4.98576082,6.94708658 C5.30037661,6.94708658 5.53633996,6.88144811 5.69365317,6.75016741 C5.85367094,6.61888971 5.93368627,6.420631 5.93368627,6.15539201 C5.93368627,5.89551421 5.85502701,5.70127488 5.69772216,5.57267252 C5.54040895,5.44139558 5.30308876,5.37575335 4.98576082,5.37575335 L4.06631449,5.37575335 L4.06631449,6.94708658 L4.98576082,6.94708658 M6.44222933,4.78901523 C6.77854158,4.88546849 7.03891507,5.06363328 7.22335283,5.32350958 C7.40777846,5.58339189 7.5,5.90221269 7.5,6.27997348 C7.5,6.85867509 7.30200147,7.2900207 6.9060211,7.57401182 C6.51003087,7.85800369 5.90791551,8 5.09967503,8 L2.5,8 L2.5,2 L4.85150546,2 C5.69500545,2 6.30525727,2.12592701 6.68226243,2.37776305 C7.06196912,2.62961032 7.25182513,3.03282473 7.2518312,3.58740777 C7.25182513,3.87944141 7.18266371,4.12860435 7.04434544,4.33489584 C6.90601655,4.53851649 6.70531118,4.68988962 6.44222933,4.78901523"/>
  </g>
</svg>
