<svg xmlns="http://www.w3.org/2000/svg" xmlns:xlink="http://www.w3.org/1999/xlink" width="10" height="10" viewBox="0 0 10 10">
  <defs>
    <rect id="code-7-b" width="10" height="10" x="0" y="0" rx="2"/>
    <filter id="code-7-a" width="160%" height="160%" x="-30%" y="-30%" filterUnits="objectBoundingBox">
      <feMorphology in="SourceAlpha" operator="dilate" radius=".25" result="shadowSpreadOuter1"/>
      <feOffset dy="2" in="shadowSpreadOuter1" result="shadowOffsetOuter1"/>
      <feGaussianBlur in="shadowOffsetOuter1" result="shadowBlurOuter1" stdDeviation="2"/>
      <feComposite in="shadowBlurOuter1" in2="SourceAlpha" operator="out" result="shadowBlurOuter1"/>
      <feColorMatrix in="shadowBlurOuter1" values="0 0 0 0 0.219607843   0 0 0 0 0.282352941   0 0 0 0 0.301960784  0 0 0 0.08 0"/>
    </filter>
  </defs>
  <g fill="none" fill-rule="evenodd">
    <g opacity="0">
      <use fill="#000" filter="url(#code-7-a)" xlink:href="#code-7-b"/>
      <use fill="#FFF" stroke="#38484D" stroke-opacity=".04" stroke-width=".5" xlink:href="#code-7-b"/>
    </g>
    <path fill="#00D8FF" fill-rule="nonzero" d="M7.32435344,1.10166144 C7.83210869,1.38374381 7.98086508,2.24088493 7.75333376,3.30451363 L7.70595191,3.50110652 C7.80958069,3.52990127 7.91011457,3.56042547 8.00723639,3.59262567 C8.49238592,3.75352644 8.89813592,3.95999181 9.18665587,4.19193467 C9.49377599,4.43883031 9.66666667,4.71335564 9.66666667,4.99217222 C9.66666667,5.55693109 8.97038284,6.1092388 7.90064469,6.45055483 L7.72691471,6.50168062 C7.74814417,6.58381041 7.76690291,6.66443131 7.78311671,6.74340579 C7.99437397,7.77141564 7.83160459,8.6164887 7.33096256,8.89553545 C7.08275098,9.03393418 6.75445324,9.03183909 6.38583704,8.90689995 C6.03685211,8.78861466 5.65333796,8.56085348 5.26949626,8.2426752 C5.18617087,8.17356675 5.10241528,8.0999394 5.01852538,8.02213807 L4.82256767,8.19446294 L4.82256767,8.19446294 C4.00388771,8.88412274 3.16260922,9.1703566 2.66156424,8.89195329 C2.41317094,8.75389658 2.25112883,8.47880002 2.17939057,8.10867595 C2.11148271,7.75831433 2.12472975,7.32445503 2.2190571,6.84524544 C2.23964758,6.74063629 2.26412615,6.63339596 2.29232871,6.52394746 C2.20526517,6.4994202 2.12119062,6.4740552 2.04000827,6.44732516 C1.01077916,6.10842484 0.333333333,5.54949921 0.333333333,4.99217222 C0.333333333,4.7158667 0.499752311,4.44315864 0.796740186,4.19839723 C1.07788699,3.96669118 1.47465701,3.7610695 1.95267188,3.60055609 C2.06262225,3.56364959 2.1773648,3.52887878 2.2963556,3.4963315 C2.27197969,3.39477988 2.2489702,3.29540433 2.22919087,3.19804257 C2.13068791,2.71287996 2.11287216,2.27109081 2.17665812,1.91431697 C2.24456437,1.53449716 2.40454195,1.25280806 2.65494557,1.11325007 C3.16224178,0.830226186 4.0070322,1.13402213 4.8498723,1.85507273 L5.00400396,1.99329521 C5.08173137,1.92115219 5.159469,1.85246145 5.23700966,1.78746164 C5.62406245,1.46294935 6.01242861,1.22746356 6.36513111,1.10254016 C6.74053528,0.969576085 7.07371442,0.962416041 7.32435344,1.10166144 Z M6.40358442,6.75541759 L6.07683747,6.78960818 C5.82042922,7.14715747 5.55766148,7.46912783 5.29475028,7.74618202 C5.37372727,7.818355 5.45192783,7.88709542 5.52957886,7.95149767 C5.8781418,8.24043229 6.22000642,8.44345867 6.51815355,8.54451295 C6.78679523,8.63556662 6.9987553,8.63691928 7.13127603,8.56302788 C7.26945108,8.48601218 7.38124893,8.29358823 7.43685393,8.00489578 C7.49874177,7.68358384 7.48540474,7.27258789 7.39198317,6.81798435 L7.34139817,6.60028431 C7.04932168,6.66534297 6.73457375,6.71727277 6.40358442,6.75541759 Z M2.6785175,6.61745739 L2.67058341,6.65071406 C2.64782684,6.74131546 2.6278613,6.83011418 2.61079404,6.91682378 C2.52512407,7.35205138 2.51331505,7.73881367 2.57133431,8.03815635 C2.62361748,8.30790445 2.72823782,8.4855169 2.86077827,8.55918273 C2.9990657,8.6360215 3.22798232,8.63321135 3.51536563,8.53543298 C3.83522358,8.42660555 4.19811229,8.21021903 4.56010815,7.90527203 L4.73838606,7.74738542 C4.46577786,7.46553731 4.19523125,7.14360066 3.93692366,6.79343921 C3.48403464,6.75762652 3.0609017,6.69894801 2.6785175,6.61745739 Z M5.56464051,6.82014289 L5.36233736,6.82800587 C5.24262176,6.83127649 5.12180783,6.83292416 5.00013773,6.83292416 C4.81479381,6.83292416 4.63237572,6.82952357 4.453514,6.82275049 C4.63783801,7.05637057 4.82650852,7.27392532 5.01563364,7.47054826 C5.19904764,7.27634501 5.38274062,7.05837217 5.56464051,6.82014289 Z M5.00013773,3.55176662 C4.71247491,3.55176662 4.42772816,3.56223718 4.15008783,3.58245421 C4.05854515,3.71185919 3.96850478,3.84519695 3.88070206,3.98182595 L3.69771646,4.27683279 C3.55398414,4.51684709 3.42114483,4.75961663 3.30063284,5.00130989 C3.37108096,5.14249607 3.44605471,5.28436274 3.52511035,5.42601559 L3.69895199,5.72611878 C3.84408697,5.96768151 3.99727531,6.20145277 4.15570912,6.4242348 C4.42655066,6.44014288 4.70942969,6.4487673 5.00013773,6.4487673 C5.2918522,6.4487673 5.57814467,6.43897951 5.85526086,6.4198547 C6.00704844,6.20082625 6.15674779,5.96812449 6.30254377,5.72452278 C6.44840198,5.48087246 6.58272334,5.23687906 6.70404201,4.99589243 C6.58254449,4.76011437 6.44783731,4.51852647 6.30131722,4.27467014 C6.15672261,4.03397206 6.00622625,3.80255043 5.85202031,3.5831943 C5.5742293,3.56230416 5.28911389,3.55176662 5.00013773,3.55176662 Z M3.08890906,5.45269896 L3.07076898,5.49530222 C2.96007158,5.75166873 2.86476326,6.00375587 2.7866272,6.24680012 C3.05236952,6.30279716 3.3409031,6.34737621 3.64688113,6.38026909 L3.54722727,6.22890937 L3.54722727,6.22890937 L3.35387196,5.91856556 C3.26096472,5.76390652 3.17254187,5.60835005 3.08890906,5.45269896 Z M6.91876094,5.43933835 L6.82449197,5.61167555 C6.76761822,5.71322692 6.70873509,5.81488651 6.64794085,5.91644085 C6.55377202,6.07378188 6.45794035,6.22685101 6.36080695,6.37510582 C6.66850916,6.33785132 6.96072852,6.28995658 7.23139109,6.23048355 C7.14911413,5.97937406 7.04377818,5.71382518 6.91876094,5.43933835 Z M2.40508034,3.86559595 L2.35297572,3.88040247 C2.26015175,3.9066362 2.17034584,3.93429344 2.08387062,3.96332015 C1.64978163,4.10908362 1.2961079,4.29237112 1.05591654,4.49032391 C0.839488301,4.66869241 0.732052639,4.84474547 0.732052639,4.99217222 C0.732052639,5.14604814 0.848921885,5.33567613 1.08041124,5.52666606 C1.33801737,5.7392036 1.7138519,5.93395782 2.16894856,6.08381017 L2.39886852,6.15477488 C2.5167685,5.78421989 2.67223621,5.39519288 2.85960573,5.00229811 C2.67526877,4.61496576 2.52193646,4.23190656 2.40508034,3.86559595 Z M7.59970927,3.87138893 L7.51460745,4.12320415 C7.41290248,4.40510213 7.28923852,4.69732204 7.14617301,4.99430981 C7.34129507,5.39048109 7.50051215,5.77330183 7.61855355,6.13331875 L7.77527578,6.08588203 L7.77527578,6.08588203 C8.24906781,5.93471156 8.63927468,5.74028256 8.90615628,5.52858618 C9.14713722,5.33743479 9.26794736,5.14792134 9.26794736,4.99217222 C9.26794736,4.84535677 9.15600929,4.66761534 8.93121295,4.48690026 C8.68315414,4.28748435 8.3196601,4.10252088 7.87747979,3.95587093 C7.78803752,3.92621684 7.69535011,3.89803859 7.59970927,3.87138893 Z M5.00013773,4.18933298 C5.4604938,4.18933298 5.83368612,4.54889517 5.83368612,4.99243762 C5.83368612,5.43598007 5.4604938,5.79554226 5.00013773,5.79554226 C4.53978167,5.79554226 4.16658934,5.43598007 4.16658934,4.99243762 C4.16658934,4.54889517 4.53978167,4.18933298 5.00013773,4.18933298 Z M3.63872247,3.63122287 L3.59171985,3.63738332 C3.3125417,3.67224461 3.04435197,3.71729958 2.79199739,3.77171071 C2.87362881,4.024306 2.9733131,4.28572523 3.08966674,4.55149741 C3.17152228,4.39521096 3.25978184,4.23944036 3.35235964,4.08484747 L3.35233027,4.08489653 C3.44492726,3.93016621 3.54058162,3.77872245 3.63872247,3.63122287 Z M6.36235642,3.63235978 L6.46047119,3.78253681 C6.52339531,3.8807567 6.5854172,3.98071347 6.64639464,4.082219 C6.74108703,4.23981746 6.83107752,4.39663716 6.9160577,4.5521066 C7.03276266,4.28482193 7.13315172,4.02483897 7.21368659,3.77616752 C6.94631857,3.71680103 6.66051832,3.66867369 6.36235642,3.63235978 Z M6.50270507,1.46310522 C6.19945813,1.57051199 5.85153626,1.7814744 5.49873623,2.07726853 C5.42746549,2.13701247 5.35590246,2.20019377 5.28423977,2.26659604 C5.55111324,2.5438127 5.81684223,2.86372627 6.07323722,3.2155654 L6.09423516,3.21723444 C6.52697079,3.25716877 6.94042578,3.3206043 7.32160717,3.40535139 L7.36282347,3.2269624 L7.36282347,3.2269624 C7.46360388,2.75584953 7.48372115,2.33294051 7.42669935,2.00437828 C7.37521692,1.7077342 7.26518381,1.51223338 7.12518444,1.43445702 C6.99322075,1.36114307 6.77749073,1.36577913 6.50270507,1.46310522 Z M2.85466928,1.44573689 C2.72284538,1.5192066 2.61928957,1.70154804 2.5695905,1.97952973 C2.51474824,2.28627876 2.53070912,2.68207154 2.62048944,3.12427195 C2.63894071,3.21509652 2.66043479,3.30794741 2.68486852,3.40254286 C3.06961564,3.31717033 3.49014931,3.25409311 3.92938457,3.21483631 C4.18579796,2.86700627 4.45392517,2.54747986 4.72522471,2.26685222 C4.67826057,2.2235089 4.63161229,2.18208648 4.58514603,2.1423393 C4.211846,1.82298072 3.84166881,1.59502552 3.51782146,1.47856644 C3.22538651,1.37340362 2.99466243,1.36763382 2.85466928,1.44573689 Z M5.00523674,2.54180109 L4.87550648,2.67903143 C4.73217348,2.83548158 4.58991712,3.00327079 4.45029923,3.18064456 C4.63158946,3.17178197 4.81532635,3.16760977 5.00013773,3.16760977 C5.18708108,3.16760977 5.37256852,3.17186842 5.55570241,3.18023446 C5.37356447,2.94849358 5.18927271,2.73394554 5.00523674,2.54180109 Z"/>
  </g>
</svg>
