<svg xmlns="http://www.w3.org/2000/svg" xmlns:xlink="http://www.w3.org/1999/xlink" width="10" height="10" viewBox="0 0 10 10">
  <defs>
    <rect id="code-3-b" width="10" height="10" x="0" y="0" rx="2"/>
    <filter id="code-3-a" width="160%" height="160%" x="-30%" y="-30%" filterUnits="objectBoundingBox">
      <feMorphology in="SourceAlpha" operator="dilate" radius=".25" result="shadowSpreadOuter1"/>
      <feOffset dy="2" in="shadowSpreadOuter1" result="shadowOffsetOuter1"/>
      <feGaussianBlur in="shadowOffsetOuter1" result="shadowBlurOuter1" stdDeviation="2"/>
      <feComposite in="shadowBlurOuter1" in2="SourceAlpha" operator="out" result="shadowBlurOuter1"/>
      <feColorMatrix in="shadowBlurOuter1" values="0 0 0 0 0.219607843   0 0 0 0 0.282352941   0 0 0 0 0.301960784  0 0 0 0.08 0"/>
    </filter>
  </defs>
  <g fill="none" fill-rule="evenodd">
    <g opacity="0">
      <use fill="#000" filter="url(#code-3-a)" xlink:href="#code-3-b"/>
      <use fill="#FFF" stroke="#38484D" stroke-opacity=".04" stroke-width=".5" xlink:href="#code-3-b"/>
    </g>
    <g fill-rule="nonzero" transform="translate(1.474 1.5)">
      <path fill="#0C73B8" d="M1.38221079e-15,0.00118428453 C2.34772036,-0.00124732641 4.69568389,0.000941123437 7.04340426,0.000211640154 C6.92401216,1.36896544 6.79367781,2.73698976 6.6806079,4.10574356 C6.6575076,4.20057638 6.6706383,4.29929979 6.64948328,4.39437577 C6.63610942,4.58136666 6.62151976,4.76811438 6.59987842,4.95388945 C6.59331307,5.02756726 6.59136778,5.1017314 6.58504559,5.17565237 C6.55610942,5.37577395 6.55659574,5.58002927 6.52644377,5.78015085 C6.51890578,5.86890465 6.52231003,5.95911742 6.50261398,6.04689857 C6.4887538,6.30391985 6.45592705,6.559239 6.43890578,6.81601711 C6.41458967,6.94197456 6.43258359,7.07328155 6.39708207,7.19729371 C6.05057751,7.28677699 5.70699088,7.38817517 5.36097264,7.4810627 C5.27221884,7.5061083 5.18297872,7.53018125 5.09349544,7.55303839 C4.94808511,7.5948621 4.80194529,7.63425419 4.65580547,7.67388945 C4.27598784,7.77747608 3.89835866,7.8898165 3.51756839,7.98805359 C3.02857143,7.85869188 2.54273556,7.71619948 2.05422492,7.58464933 C1.95963526,7.55595632 1.86285714,7.53407182 1.76851064,7.50464933 C1.39112462,7.40446696 1.01592705,7.29674659 0.639270517,7.19413261 C0.630030395,7.03778003 0.607416413,6.88288641 0.601094225,6.72653383 C0.563647416,6.36325115 0.531550152,5.999239 0.504559271,5.63522684 C0.480243161,5.54039401 0.497507599,5.44094112 0.473191489,5.34659462 C0.463951368,5.25662501 0.463951368,5.16616909 0.455440729,5.07619948 C0.435015198,4.987932 0.441337386,4.89698976 0.431367781,4.80774963 C0.407781155,4.70513565 0.423343465,4.59863109 0.398541033,4.49650343 C0.272097264,2.99814477 0.134954407,1.49954295 1.38221079e-15,0.00118428453 M3.52194529,0.584284588 C3.52145897,0.859786108 3.52267477,1.13504447 3.52097264,1.41054599 C2.78468085,1.41078915 2.04863222,1.40835754 1.31234043,1.41103231 C1.34370821,1.70404143 1.36948328,1.99778003 1.39112462,2.29176179 C2.09920973,2.29808398 2.80729483,2.28835754 3.51537994,2.29662501 C3.53094225,2.59328155 3.51586626,2.89091073 3.52316109,3.18781042 C3.17300912,3.18781042 2.82285714,3.18756726 2.47270517,3.18805359 C2.49191489,3.48300799 2.52352584,3.77723292 2.54954407,4.07194416 C2.87343465,4.07194416 3.19732523,4.07218732 3.52145897,4.071701 C3.52170213,4.54051559 3.52267477,5.00933018 3.52097264,5.47814477 C3.19489362,5.39790161 2.87294833,5.30015085 2.54735562,5.21698976 C2.51914894,4.98282562 2.50553191,4.74720252 2.47951368,4.51279523 C2.18528875,4.51595632 1.89106383,4.51303839 1.59683891,4.51449735 C1.60024316,4.61613869 1.60656535,4.71802319 1.6175076,4.81942137 C1.65519757,5.1817314 1.67416413,5.54622988 1.72231003,5.90708094 C2.32534954,6.06221772 2.92158055,6.24556118 3.52340426,6.40434538 C3.52048632,6.73018125 3.52121581,7.05626027 3.52316109,7.38209614 C4.05835866,7.23352471 4.59282675,7.08300799 5.12778116,6.93370708 C5.36705167,6.86221772 5.61167173,6.80750647 5.84802432,6.72823596 C5.92389058,5.98367669 5.98297872,5.23644264 6.05300912,4.49091073 C6.16972644,3.18878307 6.28984802,1.88665541 6.40316109,0.584041427 C5.44267477,0.582825622 4.48218845,0.5823393 3.52194529,0.584284588 Z"/>
      <path fill="#30A9DC" d="M3.52194529,0.584284588 C4.48218845,0.5823393 5.44267477,0.582825622 6.40316109,0.584041427 C6.28984802,1.88665541 6.16972644,3.18878307 6.05300912,4.49091073 C5.98297872,5.23644264 5.92389058,5.98367669 5.84802432,6.72823596 C5.61167173,6.80750647 5.36705167,6.86221772 5.12778116,6.93370708 C4.59282675,7.08300799 4.05835866,7.23352471 3.52316109,7.38209614 C3.52121581,7.05626027 3.52048632,6.73018125 3.52340426,6.40434538 C3.55598784,6.39729371 3.58808511,6.38853991 3.62018237,6.38002927 C4.19112462,6.22197456 4.76012158,6.05662501 5.3325228,5.90391985 C5.45775076,4.57553079 5.57082067,3.24592593 5.6899696,1.91705055 C5.70723404,1.74975571 5.71112462,1.58075875 5.74030395,1.41492289 C5.0006079,1.4042238 4.26066869,1.41200495 3.52097264,1.41054599 C3.52267477,1.13504447 3.52145897,0.859786108 3.52194529,0.584284588 Z"/>
      <path fill="#30A9DC" d="M1.39112462 2.29176179C2.10115502 2.29176179 2.81118541 2.29200495 3.52097264 2.29151863 3.93702128 2.29370708 4.35306991 2.29030283 4.76911854 2.29346392 4.73677812 2.59060678 4.71173252 2.88872228 4.68960486 3.18708094 4.30079027 3.18878307 3.91197568 3.18708094 3.52316109 3.18781042 3.51586626 2.89091073 3.53094225 2.59328155 3.51537994 2.29662501 2.80729483 2.28835754 2.09920973 2.29808398 1.39112462 2.29176179zM3.52145897 4.071701C3.88255319 4.07243049 4.24364742 4.071701 4.6049848 4.07218732 4.57920973 4.45322076 4.53884498 4.83352471 4.50504559 5.21407182 4.18942249 5.29966453 3.87452888 5.38817517 3.55817629 5.4710931 3.54893617 5.47279523 3.53021277 5.47644264 3.52097264 5.47814477 3.52267477 5.00933018 3.52170213 4.54051559 3.52145897 4.071701z"/>
    </g>
  </g>
</svg>
