<svg xmlns="http://www.w3.org/2000/svg" xmlns:xlink="http://www.w3.org/1999/xlink" width="10" height="10" viewBox="0 0 10 10">
  <defs>
    <rect id="code-2-b" width="10" height="10" x="0" y="0" rx="2"/>
    <filter id="code-2-a" width="160%" height="160%" x="-30%" y="-30%" filterUnits="objectBoundingBox">
      <feMorphology in="SourceAlpha" operator="dilate" radius=".25" result="shadowSpreadOuter1"/>
      <feOffset dy="2" in="shadowSpreadOuter1" result="shadowOffsetOuter1"/>
      <feGaussianBlur in="shadowOffsetOuter1" result="shadowBlurOuter1" stdDeviation="2"/>
      <feComposite in="shadowBlurOuter1" in2="SourceAlpha" operator="out" result="shadowBlurOuter1"/>
      <feColorMatrix in="shadowBlurOuter1" values="0 0 0 0 0.219607843   0 0 0 0 0.282352941   0 0 0 0 0.301960784  0 0 0 0.08 0"/>
    </filter>
  </defs>
  <g fill="none" fill-rule="evenodd">
    <g opacity="0">
      <use fill="#000" filter="url(#code-2-a)" xlink:href="#code-2-b"/>
      <use fill="#FFF" stroke="#38484D" stroke-opacity=".04" stroke-width=".5" xlink:href="#code-2-b"/>
    </g>
    <g fill-rule="nonzero" transform="translate(1.5 1)">
      <path fill="#E5A228" d="M6.93212425e-16,0.000487804878 C2.34682927,-0.000243902439 4.69365854,-3.24718551e-17 7.0404878,0.000243902439 C6.95463415,0.988292683 6.85853659,1.97512195 6.77853659,2.96341463 C6.7597561,3.05121951 6.76317073,3.14195122 6.75536585,3.23121951 C6.73585366,3.31926829 6.73878049,3.41 6.73146341,3.4995122 C6.71195122,3.58756098 6.71536585,3.67804878 6.70756098,3.76756098 C6.68707317,3.85560976 6.69195122,3.94682927 6.68414634,4.03634146 C6.65658537,4.13804878 6.67658537,4.24536585 6.6504878,4.34731707 C6.64146341,4.43829268 6.64195122,4.5297561 6.63341463,4.62073171 C6.60926829,4.70804878 6.62097561,4.7997561 6.60926829,4.88878049 C6.58487805,4.98341463 6.60195122,5.08268293 6.57731707,5.17731707 C6.5704878,5.2602439 6.56878049,5.34341463 6.56097561,5.42634146 C6.54170732,5.51414634 6.54731707,5.60487805 6.53658537,5.69390244 C6.48780488,6.19487805 6.44902439,6.69731707 6.4,7.19878049 C6.04536585,7.29804878 5.69097561,7.39853659 5.33536585,7.49439024 C5.27829268,7.51097561 5.22097561,7.52731707 5.16341463,7.54170732 C5.12487805,7.55341463 5.08609756,7.56390244 5.04804878,7.57609756 C5.03414634,7.57902439 5.00658537,7.58463415 4.99268293,7.58731707 C4.95390244,7.59902439 4.91512195,7.6097561 4.87658537,7.62146341 C4.82512195,7.63439024 4.77439024,7.64902439 4.72341463,7.66195122 C4.4004878,7.75341463 4.07682927,7.84146341 3.75390244,7.93243902 C3.67219512,7.95195122 3.59317073,7.98585366 3.5095122,7.99439024 C3.11634146,7.89146341 2.72634146,7.77487805 2.33341463,7.6702439 C2.29512195,7.65878049 2.25658537,7.64804878 2.21878049,7.63634146 C2.20487805,7.63317073 2.17682927,7.62682927 2.16292683,7.62365854 C2.12439024,7.61146341 2.08536585,7.60097561 2.04731707,7.5895122 C1.99609756,7.57731707 1.94585366,7.56268293 1.89512195,7.55 C1.83804878,7.53317073 1.78097561,7.51682927 1.72341463,7.50219512 C1.68512195,7.49097561 1.64682927,7.48073171 1.60878049,7.4697561 C1.28512195,7.38170732 0.962195122,7.29097561 0.639756098,7.1997561 C0.566585366,6.4297561 0.505853659,5.65829268 0.431219512,4.88926829 C0.423902439,4.81365854 0.422195122,4.73756098 0.416829268,4.66195122 C0.379268293,4.36536585 0.370731707,4.06487805 0.332439024,3.76853659 C0.321219512,3.58902439 0.306585366,3.4095122 0.285365854,3.23121951 C0.197073171,2.15390244 0.0943902439,1.07756098 6.93212425e-16,0.000487804878 M3.51634146,0.578780488 C3.51463415,0.692926829 3.51439024,0.806829268 3.51170732,0.920731707 C2.96658537,0.920487805 2.42146341,0.92097561 1.87658537,0.920487805 C1.82439024,1.40487805 1.78341463,1.8902439 1.7397561,2.37536585 C1.6895122,2.96317073 1.63097561,3.55073171 1.58365854,4.13878049 C2.22731707,4.13780488 2.87097561,4.13878049 3.51463415,4.13829268 C3.51317073,4.60414634 3.51731707,5.0697561 3.51268293,5.53560976 C3.43487805,5.52536585 3.36097561,5.49804878 3.28536585,5.47878049 C3.03317073,5.40463415 2.77463415,5.35 2.52634146,5.26414634 C2.51780488,5.03365854 2.48780488,4.80463415 2.4704878,4.57487805 C2.17365854,4.5695122 1.87658537,4.57365854 1.5795122,4.57268293 C1.61756098,5.03682927 1.66560976,5.5 1.70146341,5.96439024 C2.30780488,6.12121951 2.90707317,6.30585366 3.51292683,6.46243902 C3.51780488,6.76634146 3.51097561,7.0702439 3.51658537,7.37414634 C4.22341463,7.18829268 4.92463415,6.9802439 5.6304878,6.79 C5.69902439,6.77146341 5.77121951,6.7595122 5.83365854,6.72365854 C5.85829268,6.65 5.85756098,6.57073171 5.86560976,6.49414634 C6.0304878,4.60926829 6.20195122,2.72512195 6.37121951,0.840731707 C6.38195122,0.753902439 6.38780488,0.666585366 6.38341463,0.579268293 C5.42780488,0.577804878 4.47219512,0.579512195 3.51634146,0.578780488 Z"/>
      <path fill="#E5A228" d="M2.67292683,1.87219512 C2.95268293,1.8595122 3.23219512,1.84609756 3.51243902,1.84804878 C3.51560976,2.31390244 3.51707317,2.78 3.51195122,3.24609756 C3.19365854,3.24634146 2.87560976,3.24560976 2.55731707,3.24634146 C2.58487805,2.78756098 2.64512195,2.33097561 2.67292683,1.87219512 Z"/>
      <path fill="#F1BF26" d="M3.51634146,0.578780488 C4.47219512,0.579512195 5.42780488,0.577804878 6.38341463,0.579268293 C6.38780488,0.666585366 6.38195122,0.753902439 6.37121951,0.840731707 C6.20195122,2.72512195 6.0304878,4.60926829 5.86560976,6.49414634 C5.85756098,6.57073171 5.85829268,6.65 5.83365854,6.72365854 C5.77121951,6.7595122 5.69902439,6.77146341 5.6304878,6.79 C4.92463415,6.9802439 4.22341463,7.18829268 3.51658537,7.37414634 C3.51097561,7.0702439 3.51780488,6.76634146 3.51292683,6.46243902 C3.52,6.46170732 3.53390244,6.4597561 3.54073171,6.45902439 C4.13195122,6.2904878 4.72341463,6.12390244 5.31682927,5.96341463 C5.39414634,5.05756098 5.48634146,4.15268293 5.55707317,3.24634146 C4.87536585,3.24560976 4.19365854,3.24609756 3.51195122,3.24609756 C3.51707317,2.78 3.51560976,2.31390244 3.51243902,1.84804878 C3.65512195,1.84878049 3.79829268,1.84780488 3.94097561,1.85902439 C4.15609756,1.87609756 4.37170732,1.88804878 4.58731707,1.8997561 C4.61365854,2.20243902 4.64268293,2.50487805 4.66902439,2.80780488 C4.76073171,2.81439024 4.85317073,2.81682927 4.94536585,2.81121951 C5.14829268,2.80195122 5.35121951,2.81439024 5.55414634,2.81902439 C5.51658537,2.18536585 5.43756098,1.55439024 5.39292683,0.92097561 C4.77170732,0.920243902 4.1504878,0.92097561 3.5295122,0.920731707 L3.51170732,0.920731707 C3.51439024,0.806829268 3.51463415,0.692926829 3.51634146,0.578780488 Z"/>
      <path fill="#F1BF26" d="M3.51463415,4.13829268 C3.87341463,4.13902439 4.23219512,4.13707317 4.59097561,4.13926829 C4.55317073,4.51804878 4.52219512,4.89731707 4.48756098,5.27634146 C4.17365854,5.35414634 3.86341463,5.44560976 3.55073171,5.52756098 C3.54121951,5.5295122 3.52219512,5.53341463 3.51268293,5.53560976 C3.51731707,5.0697561 3.51317073,4.60414634 3.51463415,4.13829268 Z"/>
    </g>
  </g>
</svg>
