<svg xmlns="http://www.w3.org/2000/svg" xmlns:xlink="http://www.w3.org/1999/xlink" width="10" height="10" viewBox="0 0 10 10">
  <defs>
    <rect id="code-6-b" width="10" height="10" x="0" y="0" rx="2"/>
    <filter id="code-6-a" width="160%" height="160%" x="-30%" y="-30%" filterUnits="objectBoundingBox">
      <feMorphology in="SourceAlpha" operator="dilate" radius=".25" result="shadowSpreadOuter1"/>
      <feOffset dy="2" in="shadowSpreadOuter1" result="shadowOffsetOuter1"/>
      <feGaussianBlur in="shadowOffsetOuter1" result="shadowBlurOuter1" stdDeviation="2"/>
      <feComposite in="shadowBlurOuter1" in2="SourceAlpha" operator="out" result="shadowBlurOuter1"/>
      <feColorMatrix in="shadowBlurOuter1" values="0 0 0 0 0.219607843   0 0 0 0 0.282352941   0 0 0 0 0.301960784  0 0 0 0.08 0"/>
    </filter>
  </defs>
  <g fill="none" fill-rule="evenodd">
    <g opacity="0">
      <use fill="#000" filter="url(#code-6-a)" xlink:href="#code-6-b"/>
      <use fill="#FFF" stroke="#38484D" stroke-opacity=".04" stroke-width=".5" xlink:href="#code-6-b"/>
    </g>
    <g fill-rule="nonzero" transform="translate(.5 3)">
      <path fill="#CB3837" d="M8.89712697,-1.18571819e-13 L8.89712697,2.96705283 L4.44863299,2.96705283 L4.44856348,3.46153846 L2.47138554,3.46153846 L2.47152456,2.96746988 L3.33066907e-15,2.96705283 L3.33066907e-15,-1.18571819e-13 L8.89712697,-1.18571819e-13 Z M4.94179796,2.47235867 L4.94249305,0.494902688 L4.94249305,0.494902688 L2.96642725,0.494902688 L2.96642725,2.96670528 L3.95407785,2.96663577 L3.95414736,2.47208063 L4.94179796,2.47235867 L4.94179796,2.47235867 Z M2.47069045,2.47201112 L2.47075996,0.494902688 L0.494485635,0.494902688 L0.494555144,2.47194161 L1.48248378,2.47159407 L1.48248378,2.47159407 L1.48234476,0.988484708 L1.977595,0.988415199 L1.97787303,2.47201112 L1.97787303,2.47201112 L2.47069045,2.47201112 Z M8.40257183,2.47194161 L8.40264133,0.494902688 L5.43760426,0.494833179 L5.43760426,2.47201112 L6.42504634,2.4718721 L6.42504634,2.4718721 L6.42518536,0.988554217 L6.92057461,0.988554217 L6.92057461,0.988554217 L6.92064411,2.4718721 L7.41367006,2.47201112 L7.41367006,2.47201112 L7.41325301,0.989249305 L7.90898981,0.988484708 L7.90898981,0.988484708 L7.91003244,2.47249768 L7.91003244,2.47249768 L8.40257183,2.47194161 L8.40257183,2.47194161 Z M3.95421687,0.988415199 L4.44849398,0.988415199 L4.44842447,1.97877665 L3.95428638,1.97870714 L3.95421687,0.988415199 Z"/>
      <path fill="#FFF" d="M4.94249305,0.494902688 C4.94214551,1.15405468 4.94360519,1.81320667 4.94179796,2.47235867 L3.95414736,2.47208063 L3.95414736,2.47208063 L3.95407785,2.96663577 L3.95407785,2.96663577 L2.96642725,2.96670528 L2.96642725,2.96670528 L2.96642725,0.494902688 L2.96642725,0.494902688 L4.94249305,0.494902688 L4.94249305,0.494902688 Z M2.47075996,0.494902688 L2.47069045,2.47201112 L2.47069045,2.47201112 L1.97787303,2.47201112 L1.97787303,2.47201112 L1.977595,0.988415199 L1.977595,0.988415199 L1.48234476,0.988484708 L1.48234476,0.988484708 L1.48248378,2.47159407 L1.48248378,2.47159407 C1.15322057,2.47256719 0.823887859,2.47173309 0.494555144,2.47194161 L0.494485635,0.494902688 L0.494485635,0.494902688 L2.47075996,0.494902688 L2.47075996,0.494902688 Z M8.40264133,0.494902688 L8.40257183,2.47194161 L8.40257183,2.47194161 L7.91003244,2.47249768 L7.91003244,2.47249768 C7.90773865,1.97787303 7.90982391,1.48317887 7.90898981,0.988484708 C7.74369787,0.988901761 7.57840593,0.987372567 7.41325301,0.989249305 C7.41429564,1.48352641 7.41339203,1.97773401 7.41367006,2.47201112 L6.92064411,2.4718721 L6.92064411,2.4718721 L6.92057461,0.988554217 L6.92057461,0.988554217 L6.42518536,0.988554217 L6.42518536,0.988554217 L6.42504634,2.4718721 L6.42504634,2.4718721 L5.43760426,2.47201112 L5.43760426,2.47201112 L5.43760426,0.494833179 L5.43760426,0.494833179 L8.40264133,0.494902688 L8.40264133,0.494902688 Z M4.44849398,0.988415199 L3.95421687,0.988415199 L3.95421687,0.988415199 L3.95428638,1.97870714 L3.95428638,1.97870714 L4.44842447,1.97877665 L4.44842447,1.97877665 C4.44863299,1.64860982 4.44863299,1.31851251 4.44849398,0.988415199 Z"/>
    </g>
  </g>
</svg>
