<svg xmlns="http://www.w3.org/2000/svg" xmlns:xlink="http://www.w3.org/1999/xlink" width="10" height="10" viewBox="0 0 10 10">
  <defs>
    <rect id="design-1-b" width="10" height="10" x="0" y="0" rx="2"/>
    <filter id="design-1-a" width="160%" height="160%" x="-30%" y="-30%" filterUnits="objectBoundingBox">
      <feMorphology in="SourceAlpha" operator="dilate" radius=".25" result="shadowSpreadOuter1"/>
      <feOffset dy="2" in="shadowSpreadOuter1" result="shadowOffsetOuter1"/>
      <feGaussianBlur in="shadowOffsetOuter1" result="shadowBlurOuter1" stdDeviation="2"/>
      <feComposite in="shadowBlurOuter1" in2="SourceAlpha" operator="out" result="shadowBlurOuter1"/>
      <feColorMatrix in="shadowBlurOuter1" values="0 0 0 0 0.219607843   0 0 0 0 0.282352941   0 0 0 0 0.301960784  0 0 0 0.08 0"/>
    </filter>
  </defs>
  <g fill="none" fill-rule="evenodd">
    <g opacity="0">
      <use fill="#000" filter="url(#design-1-a)" xlink:href="#design-1-b"/>
      <use fill="#FFF" stroke="#38484D" stroke-opacity=".04" stroke-width=".5" xlink:href="#design-1-b"/>
    </g>
    <path fill="#4CBFEA" fill-rule="nonzero" d="M5.71657227,1.5578125 C6.52490234,1.5578125 6.95638672,1.8859668 7.15797852,2.0640625 L7.15797852,2.0640625 L6.77829102,2.63359375 C6.59076172,2.49296875 6.17333984,2.22578125 5.70954102,2.22578125 C5.36767578,2.22578125 5.14704102,2.37182617 5.14704102,2.640625 C5.14704102,2.97607422 5.73526367,3.07193359 5.87125977,3.1046875 C6.12438477,3.17037109 7.29860352,3.34960938 7.29860352,4.215625 C7.29860352,5.23925781 6.26732422,5.3828125 5.80797852,5.3828125 C4.95751953,5.3828125 4.35250977,4.99609375 4.14157227,4.81328125 L4.14157227,4.81328125 L4.49313477,4.22265625 C4.71813477,4.38206055 5.23583984,4.7078125 5.78688477,4.7078125 C6.14404297,4.7078125 6.39157227,4.55810547 6.39157227,4.3 C6.39157227,3.9831543 5.86882812,3.88055664 5.58297852,3.80078125 C5.34391602,3.73518555 4.26813477,3.58398438 4.26813477,2.77421875 C4.26813477,1.99462891 4.9465332,1.5578125 5.71657227,1.5578125 Z M2.24322266,0.3203125 C3.21189453,0.3203125 3.83228516,1.2109375 3.83228516,1.9796875 C3.83228516,2.88575195 3.14354492,3.6390625 2.27837891,3.6390625 L2.27837891,3.6390625 L1.09712891,3.6390625 L1.09712891,5.3125 L0.126816406,5.3125 L0.126816406,0.3203125 Z M2.17994141,1.17109375 L1.09712891,1.17109375 L1.09712891,2.78828125 L2.22212891,2.78828125 C2.5625,2.78828125 2.84791016,2.47070313 2.84791016,1.9796875 C2.84791016,1.5578125 2.59176758,1.17109375 2.17994141,1.17109375 L2.17994141,1.17109375 Z" transform="translate(1.5 2.5)"/>
  </g>
</svg>
