<svg xmlns="http://www.w3.org/2000/svg" xmlns:xlink="http://www.w3.org/1999/xlink" width="12" height="12" viewBox="0 0 12 12">
  <defs>
    <rect id="keyboard-a" width="12" height="12" x="0" y="0"/>
  </defs>
  <g fill="none" fill-rule="evenodd">
    <mask id="keyboard-b" fill="#fff">
      <use xlink:href="#keyboard-a"/>
    </mask>
    <path fill="#FF4D00" fill-rule="nonzero" d="M9.84612245,4.48546215 L6.32653061,4.48546215 C6.32653061,3.40236879 6.72571429,3.3459359 7.38653061,3.2518811 C8.0755102,3.1540641 9.01877551,3.01987924 9.01877551,1.33441709 C9.01877551,1.14965165 8.87265306,1 8.6922449,1 C8.51183673,1 8.36571429,1.14965165 8.36571429,1.33441709 C8.36571429,2.43757548 7.96326531,2.49442638 7.29632653,2.58931723 C6.61142857,2.68671621 5.67346939,2.82006503 5.67346939,4.48546215 L2.15387755,4.48546215 C1.51673469,4.48546215 1,5.01467719 1,5.66720855 L1,8.8182536 C1,9.47036693 1.51673469,10 2.15387755,10 L9.84612245,10 C10.4832653,10 11,9.47078495 11,8.8182536 L11,5.66720855 C11,5.01467719 10.4832653,4.48546215 9.84612245,4.48546215 Z M7.92326531,5.66720855 L8.69265306,5.66720855 L8.69265306,6.45517882 L7.92326531,6.45517882 L7.92326531,5.66720855 Z M9.07673469,6.84895495 L9.07673469,7.63692522 L8.30734694,7.63692522 L8.30734694,6.84895495 L9.07673469,6.84895495 L9.07673469,6.84895495 Z M6.76938776,5.66720855 L7.53877551,5.66720855 L7.53877551,6.45517882 L6.76938776,6.45517882 L6.76938776,5.66720855 Z M7.92326531,6.84895495 L7.92326531,7.63692522 L7.15387755,7.63692522 L7.15387755,6.84895495 L7.92326531,6.84895495 L7.92326531,6.84895495 Z M5.6155102,5.66720855 L6.38489796,5.66720855 L6.38489796,6.45517882 L5.6155102,6.45517882 L5.6155102,5.66720855 Z M6.76938776,6.84895495 L6.76938776,7.63692522 L6,7.63692522 L6,6.84895495 L6.76938776,6.84895495 L6.76938776,6.84895495 Z M4.46163265,5.66720855 L5.23102041,5.66720855 L5.23102041,6.45517882 L4.46163265,6.45517882 L4.46163265,5.66720855 Z M5.6155102,6.84895495 L5.6155102,7.63692522 L4.84612245,7.63692522 L4.84612245,6.84895495 L5.6155102,6.84895495 L5.6155102,6.84895495 Z M3.3077551,5.66720855 L4.07714286,5.66720855 L4.07714286,6.45517882 L3.3077551,6.45517882 L3.3077551,5.66720855 Z M4.46163265,6.84895495 L4.46163265,7.63692522 L3.6922449,7.63692522 L3.6922449,6.84895495 L4.46163265,6.84895495 L4.46163265,6.84895495 Z M2.15387755,5.66720855 L2.92326531,5.66720855 L2.92326531,6.45517882 L2.15387755,6.45517882 L2.15387755,5.66720855 Z M3.3077551,6.84895495 L3.3077551,7.63692522 L2.53836735,7.63692522 L2.53836735,6.84895495 L3.3077551,6.84895495 L3.3077551,6.84895495 Z M2.92326531,8.8182536 L2.15387755,8.8182536 L2.15387755,8.03028333 L2.92326531,8.03028333 L2.92326531,8.8182536 Z M8.6922449,8.8182536 L3.3077551,8.8182536 L3.3077551,8.03028333 L8.6922449,8.03028333 L8.6922449,8.8182536 Z M9.84612245,8.8182536 L9.07673469,8.8182536 L9.07673469,8.03028333 L9.84612245,8.03028333 L9.84612245,8.8182536 Z M9.84612245,6.4547608 L9.07673469,6.4547608 L9.07673469,5.66679052 L9.84612245,5.66679052 L9.84612245,6.4547608 Z" mask="url(#keyboard-b)"/>
  </g>
</svg>
