<svg xmlns="http://www.w3.org/2000/svg" xmlns:xlink="http://www.w3.org/1999/xlink" width="12" height="12" viewBox="0 0 12 12">
  <defs>
    <rect id="skill-a" width="12" height="12" x="0" y="0"/>
  </defs>
  <g fill="none" fill-rule="evenodd">
    <mask id="skill-b" fill="#fff">
      <use xlink:href="#skill-a"/>
    </mask>
    <path fill="#FF4D00" fill-rule="nonzero" d="M9.38916667,7.09541667 C9.47458333,6.88083333 9.71916667,6.77708333 9.93083333,6.8625 C10.14375,6.94791667 10.2479167,7.19041667 10.16375,7.40458333 L10.16375,7.40458333 L9.33041667,9.48791667 C9.28208333,9.60833333 9.18083333,9.69958333 9.05583333,9.73458333 C9.01875,9.74416667 8.98041667,9.75 8.94291667,9.75 C8.85416667,9.75 8.76625,9.72166667 8.69291667,9.66666667 L8.69291667,9.66666667 L7.27625,8.60416667 L7.27625,11 L3.94291667,11 L3.94291667,8.60416667 L2.52625,9.66666667 C2.4225,9.74416667 2.28833333,9.76875 2.16375,9.73458333 C2.03875,9.69958333 1.9375,9.60833333 1.88916667,9.48791667 L1.88916667,9.48791667 L1.05583333,7.40458333 C0.970416667,7.19041667 1.07416667,6.94791667 1.28791667,6.8625 C1.50291667,6.7775 1.74416667,6.88125 1.82958333,7.09541667 L1.82958333,7.09541667 L2.46083333,8.67375 L3.6925,7.75 C3.76458333,7.69583333 3.8525,7.66666667 3.9425,7.66666667 L3.9425,7.66666667 L7.27583333,7.66666667 C7.36625,7.66666667 7.45375,7.69583333 7.52583333,7.75 L7.52583333,7.75 L8.7575,8.67375 Z M5.60958333,4.75 C6.29993927,4.75 6.85958333,5.30964406 6.85958333,6 C6.85958333,6.69035594 6.29993927,7.25 5.60958333,7.25 C4.9192274,7.25 4.35958333,6.69035594 4.35958333,6 C4.35958333,5.30964406 4.9192274,4.75 5.60958333,4.75 Z M2.66666667,2.66666667 L4.33333333,4.33333333 L2.66666667,6 L1,4.33333333 L2.66666667,2.66666667 Z M2.66666667,3.25583333 L1.58916667,4.33333333 L2.66666667,5.41083333 L3.74416667,4.33333333 L2.66666667,3.25583333 Z M9.33333333,2.25 L11,5.16666667 L7.66666667,5.16666667 L9.33333333,2.25 Z M9.33333333,3.09 L8.38458333,4.75 L10.2816667,4.75 L9.33333333,3.09 Z M6,1 C6.69041667,1 7.25,1.55958333 7.25,2.25 C7.25,2.94041667 6.69041667,3.5 6,3.5 C5.30958333,3.5 4.75,2.94041667 4.75,2.25 C4.75,1.55958333 5.30958333,1 6,1 Z M6,1.41666667 C5.54041667,1.41666667 5.16666667,1.79041667 5.16666667,2.25 C5.16666667,2.70958333 5.54041667,3.08333333 6,3.08333333 C6.45958333,3.08333333 6.83333333,2.70958333 6.83333333,2.25 C6.83333333,1.79041667 6.45958333,1.41666667 6,1.41666667 Z" mask="url(#skill-b)"/>
  </g>
</svg>
